<mxfile host="Electron" agent="Mozilla/5.0 (Windows NT 10.0; Win64; x64) AppleWebKit/537.36 (KHTML, like Gecko) draw.io/24.7.8 Chrome/128.0.6613.36 Electron/32.0.1 Safari/537.36" version="24.7.8">
  <diagram name="Page-1" id="pn2IBiz9rQjY-bVvJvox">
    <mxGraphModel dx="1050" dy="1798" grid="1" gridSize="10" guides="1" tooltips="1" connect="1" arrows="1" fold="1" page="1" pageScale="1" pageWidth="827" pageHeight="1169" math="0" shadow="0">
      <root>
        <mxCell id="0" />
        <mxCell id="1" parent="0" />
        <mxCell id="4KDGW-qGhdqhRM9TrZcH-1" value="Asteroide *" style="swimlane;fontStyle=1;align=center;verticalAlign=top;childLayout=stackLayout;horizontal=1;startSize=26;horizontalStack=0;resizeParent=1;resizeParentMax=0;resizeLast=0;collapsible=1;marginBottom=0;whiteSpace=wrap;html=1;" vertex="1" parent="1">
          <mxGeometry x="40" y="-560" width="160" height="102" as="geometry" />
        </mxCell>
        <mxCell id="4KDGW-qGhdqhRM9TrZcH-2" value="&amp;nbsp;&lt;div&gt;&lt;/div&gt;" style="text;strokeColor=none;fillColor=none;align=left;verticalAlign=top;spacingLeft=4;spacingRight=4;overflow=hidden;rotatable=0;points=[[0,0.5],[1,0.5]];portConstraint=eastwest;whiteSpace=wrap;html=1;" vertex="1" parent="4KDGW-qGhdqhRM9TrZcH-1">
          <mxGeometry y="26" width="160" height="42" as="geometry" />
        </mxCell>
        <mxCell id="4KDGW-qGhdqhRM9TrZcH-3" value="" style="line;strokeWidth=1;fillColor=none;align=left;verticalAlign=middle;spacingTop=-1;spacingLeft=3;spacingRight=3;rotatable=0;labelPosition=right;points=[];portConstraint=eastwest;strokeColor=inherit;" vertex="1" parent="4KDGW-qGhdqhRM9TrZcH-1">
          <mxGeometry y="68" width="160" height="8" as="geometry" />
        </mxCell>
        <mxCell id="4KDGW-qGhdqhRM9TrZcH-4" value="crearAsteroide() *" style="text;strokeColor=none;fillColor=none;align=left;verticalAlign=top;spacingLeft=4;spacingRight=4;overflow=hidden;rotatable=0;points=[[0,0.5],[1,0.5]];portConstraint=eastwest;whiteSpace=wrap;html=1;" vertex="1" parent="4KDGW-qGhdqhRM9TrZcH-1">
          <mxGeometry y="76" width="160" height="26" as="geometry" />
        </mxCell>
        <mxCell id="4KDGW-qGhdqhRM9TrZcH-5" value="as_grande" style="swimlane;fontStyle=1;align=center;verticalAlign=top;childLayout=stackLayout;horizontal=1;startSize=26;horizontalStack=0;resizeParent=1;resizeParentMax=0;resizeLast=0;collapsible=1;marginBottom=0;whiteSpace=wrap;html=1;" vertex="1" parent="1">
          <mxGeometry x="120" y="-169.59000000000003" width="160" height="180" as="geometry" />
        </mxCell>
        <mxCell id="4KDGW-qGhdqhRM9TrZcH-6" value="+ field: type" style="text;strokeColor=none;fillColor=none;align=left;verticalAlign=top;spacingLeft=4;spacingRight=4;overflow=hidden;rotatable=0;points=[[0,0.5],[1,0.5]];portConstraint=eastwest;whiteSpace=wrap;html=1;" vertex="1" parent="4KDGW-qGhdqhRM9TrZcH-5">
          <mxGeometry y="26" width="160" height="74" as="geometry" />
        </mxCell>
        <mxCell id="4KDGW-qGhdqhRM9TrZcH-7" value="" style="line;strokeWidth=1;fillColor=none;align=left;verticalAlign=middle;spacingTop=-1;spacingLeft=3;spacingRight=3;rotatable=0;labelPosition=right;points=[];portConstraint=eastwest;strokeColor=inherit;" vertex="1" parent="4KDGW-qGhdqhRM9TrZcH-5">
          <mxGeometry y="100" width="160" height="8" as="geometry" />
        </mxCell>
        <mxCell id="4KDGW-qGhdqhRM9TrZcH-8" value="crearAsteroide()" style="text;strokeColor=none;fillColor=none;align=left;verticalAlign=top;spacingLeft=4;spacingRight=4;overflow=hidden;rotatable=0;points=[[0,0.5],[1,0.5]];portConstraint=eastwest;whiteSpace=wrap;html=1;" vertex="1" parent="4KDGW-qGhdqhRM9TrZcH-5">
          <mxGeometry y="108" width="160" height="72" as="geometry" />
        </mxCell>
        <mxCell id="4KDGW-qGhdqhRM9TrZcH-9" value="as_mediano" style="swimlane;fontStyle=1;align=center;verticalAlign=top;childLayout=stackLayout;horizontal=1;startSize=26;horizontalStack=0;resizeParent=1;resizeParentMax=0;resizeLast=0;collapsible=1;marginBottom=0;whiteSpace=wrap;html=1;" vertex="1" parent="1">
          <mxGeometry x="120" y="30.409999999999968" width="160" height="180" as="geometry" />
        </mxCell>
        <mxCell id="4KDGW-qGhdqhRM9TrZcH-10" value="+ field: type" style="text;strokeColor=none;fillColor=none;align=left;verticalAlign=top;spacingLeft=4;spacingRight=4;overflow=hidden;rotatable=0;points=[[0,0.5],[1,0.5]];portConstraint=eastwest;whiteSpace=wrap;html=1;" vertex="1" parent="4KDGW-qGhdqhRM9TrZcH-9">
          <mxGeometry y="26" width="160" height="74" as="geometry" />
        </mxCell>
        <mxCell id="4KDGW-qGhdqhRM9TrZcH-11" value="" style="line;strokeWidth=1;fillColor=none;align=left;verticalAlign=middle;spacingTop=-1;spacingLeft=3;spacingRight=3;rotatable=0;labelPosition=right;points=[];portConstraint=eastwest;strokeColor=inherit;" vertex="1" parent="4KDGW-qGhdqhRM9TrZcH-9">
          <mxGeometry y="100" width="160" height="8" as="geometry" />
        </mxCell>
        <mxCell id="4KDGW-qGhdqhRM9TrZcH-12" value="crearAsteroide()" style="text;strokeColor=none;fillColor=none;align=left;verticalAlign=top;spacingLeft=4;spacingRight=4;overflow=hidden;rotatable=0;points=[[0,0.5],[1,0.5]];portConstraint=eastwest;whiteSpace=wrap;html=1;" vertex="1" parent="4KDGW-qGhdqhRM9TrZcH-9">
          <mxGeometry y="108" width="160" height="72" as="geometry" />
        </mxCell>
        <mxCell id="4KDGW-qGhdqhRM9TrZcH-13" value="as_chico&lt;div&gt;&lt;br&gt;&lt;/div&gt;" style="swimlane;fontStyle=1;align=center;verticalAlign=top;childLayout=stackLayout;horizontal=1;startSize=26;horizontalStack=0;resizeParent=1;resizeParentMax=0;resizeLast=0;collapsible=1;marginBottom=0;whiteSpace=wrap;html=1;" vertex="1" parent="1">
          <mxGeometry x="80" y="310" width="160" height="86" as="geometry" />
        </mxCell>
        <mxCell id="4KDGW-qGhdqhRM9TrZcH-14" value="+ field: type" style="text;strokeColor=none;fillColor=none;align=left;verticalAlign=top;spacingLeft=4;spacingRight=4;overflow=hidden;rotatable=0;points=[[0,0.5],[1,0.5]];portConstraint=eastwest;whiteSpace=wrap;html=1;" vertex="1" parent="4KDGW-qGhdqhRM9TrZcH-13">
          <mxGeometry y="26" width="160" height="26" as="geometry" />
        </mxCell>
        <mxCell id="4KDGW-qGhdqhRM9TrZcH-15" value="" style="line;strokeWidth=1;fillColor=none;align=left;verticalAlign=middle;spacingTop=-1;spacingLeft=3;spacingRight=3;rotatable=0;labelPosition=right;points=[];portConstraint=eastwest;strokeColor=inherit;" vertex="1" parent="4KDGW-qGhdqhRM9TrZcH-13">
          <mxGeometry y="52" width="160" height="8" as="geometry" />
        </mxCell>
        <mxCell id="4KDGW-qGhdqhRM9TrZcH-16" value="+ method(type): type" style="text;strokeColor=none;fillColor=none;align=left;verticalAlign=top;spacingLeft=4;spacingRight=4;overflow=hidden;rotatable=0;points=[[0,0.5],[1,0.5]];portConstraint=eastwest;whiteSpace=wrap;html=1;" vertex="1" parent="4KDGW-qGhdqhRM9TrZcH-13">
          <mxGeometry y="60" width="160" height="26" as="geometry" />
        </mxCell>
        <mxCell id="4KDGW-qGhdqhRM9TrZcH-19" value="" style="endArrow=open;endFill=1;endSize=12;html=1;rounded=0;exitX=0.002;exitY=0.167;exitDx=0;exitDy=0;exitPerimeter=0;entryX=0.052;entryY=1.169;entryDx=0;entryDy=0;entryPerimeter=0;" edge="1" parent="1" source="4KDGW-qGhdqhRM9TrZcH-5">
          <mxGeometry width="160" relative="1" as="geometry">
            <mxPoint x="382.32" y="0.40999999999996817" as="sourcePoint" />
            <mxPoint x="100.63999999999993" y="-199.19600000000003" as="targetPoint" />
            <Array as="points">
              <mxPoint x="100" y="-140" />
            </Array>
          </mxGeometry>
        </mxCell>
        <mxCell id="4KDGW-qGhdqhRM9TrZcH-21" value="" style="endArrow=open;endFill=1;endSize=12;html=1;rounded=0;exitX=0.002;exitY=0.177;exitDx=0;exitDy=0;exitPerimeter=0;entryX=0.048;entryY=1.138;entryDx=0;entryDy=0;entryPerimeter=0;" edge="1" parent="1" source="4KDGW-qGhdqhRM9TrZcH-9">
          <mxGeometry width="160" relative="1" as="geometry">
            <mxPoint x="382.32" y="0.40999999999996817" as="sourcePoint" />
            <mxPoint x="100.00000000000006" y="-200.00200000000007" as="targetPoint" />
            <Array as="points">
              <mxPoint x="100" y="62" />
            </Array>
          </mxGeometry>
        </mxCell>
        <mxCell id="4KDGW-qGhdqhRM9TrZcH-22" value="" style="endArrow=open;endFill=1;endSize=12;html=1;rounded=0;exitX=-0.023;exitY=0.158;exitDx=0;exitDy=0;exitPerimeter=0;entryX=0.042;entryY=1.138;entryDx=0;entryDy=0;entryPerimeter=0;" edge="1" parent="1" source="4KDGW-qGhdqhRM9TrZcH-13" target="4KDGW-qGhdqhRM9TrZcH-4">
          <mxGeometry width="160" relative="1" as="geometry">
            <mxPoint x="330" y="-240" as="sourcePoint" />
            <mxPoint x="490" y="-240" as="targetPoint" />
            <Array as="points">
              <mxPoint x="50" y="324" />
            </Array>
          </mxGeometry>
        </mxCell>
        <mxCell id="4KDGW-qGhdqhRM9TrZcH-23" value="as_subdivisible *&lt;div&gt;&lt;br&gt;&lt;/div&gt;" style="swimlane;fontStyle=1;align=center;verticalAlign=top;childLayout=stackLayout;horizontal=1;startSize=26;horizontalStack=0;resizeParent=1;resizeParentMax=0;resizeLast=0;collapsible=1;marginBottom=0;whiteSpace=wrap;html=1;" vertex="1" parent="1">
          <mxGeometry x="80" y="-388" width="160" height="180" as="geometry" />
        </mxCell>
        <mxCell id="4KDGW-qGhdqhRM9TrZcH-24" value="+ field: type" style="text;strokeColor=none;fillColor=none;align=left;verticalAlign=top;spacingLeft=4;spacingRight=4;overflow=hidden;rotatable=0;points=[[0,0.5],[1,0.5]];portConstraint=eastwest;whiteSpace=wrap;html=1;" vertex="1" parent="4KDGW-qGhdqhRM9TrZcH-23">
          <mxGeometry y="26" width="160" height="74" as="geometry" />
        </mxCell>
        <mxCell id="4KDGW-qGhdqhRM9TrZcH-25" value="" style="line;strokeWidth=1;fillColor=none;align=left;verticalAlign=middle;spacingTop=-1;spacingLeft=3;spacingRight=3;rotatable=0;labelPosition=right;points=[];portConstraint=eastwest;strokeColor=inherit;" vertex="1" parent="4KDGW-qGhdqhRM9TrZcH-23">
          <mxGeometry y="100" width="160" height="8" as="geometry" />
        </mxCell>
        <mxCell id="4KDGW-qGhdqhRM9TrZcH-26" value="subdividir() *" style="text;strokeColor=none;fillColor=none;align=left;verticalAlign=top;spacingLeft=4;spacingRight=4;overflow=hidden;rotatable=0;points=[[0,0.5],[1,0.5]];portConstraint=eastwest;whiteSpace=wrap;html=1;" vertex="1" parent="4KDGW-qGhdqhRM9TrZcH-23">
          <mxGeometry y="108" width="160" height="72" as="geometry" />
        </mxCell>
        <mxCell id="4KDGW-qGhdqhRM9TrZcH-27" value="" style="endArrow=open;endFill=1;endSize=12;html=1;rounded=0;entryX=0.323;entryY=1.046;entryDx=0;entryDy=0;entryPerimeter=0;exitX=0.073;exitY=-0.03;exitDx=0;exitDy=0;exitPerimeter=0;" edge="1" parent="1" source="4KDGW-qGhdqhRM9TrZcH-23" target="4KDGW-qGhdqhRM9TrZcH-4">
          <mxGeometry width="160" relative="1" as="geometry">
            <mxPoint x="91.68000000000006" y="-443.182" as="sourcePoint" />
            <mxPoint x="490" y="-270" as="targetPoint" />
          </mxGeometry>
        </mxCell>
        <mxCell id="4KDGW-qGhdqhRM9TrZcH-28" value="OVNI *" style="swimlane;fontStyle=1;align=center;verticalAlign=top;childLayout=stackLayout;horizontal=1;startSize=26;horizontalStack=0;resizeParent=1;resizeParentMax=0;resizeLast=0;collapsible=1;marginBottom=0;whiteSpace=wrap;html=1;" vertex="1" parent="1">
          <mxGeometry x="360" y="-330" width="160" height="150" as="geometry" />
        </mxCell>
        <mxCell id="4KDGW-qGhdqhRM9TrZcH-29" value="&amp;nbsp;" style="text;strokeColor=none;fillColor=none;align=left;verticalAlign=top;spacingLeft=4;spacingRight=4;overflow=hidden;rotatable=0;points=[[0,0.5],[1,0.5]];portConstraint=eastwest;whiteSpace=wrap;html=1;" vertex="1" parent="4KDGW-qGhdqhRM9TrZcH-28">
          <mxGeometry y="26" width="160" height="54" as="geometry" />
        </mxCell>
        <mxCell id="4KDGW-qGhdqhRM9TrZcH-30" value="" style="line;strokeWidth=1;fillColor=none;align=left;verticalAlign=middle;spacingTop=-1;spacingLeft=3;spacingRight=3;rotatable=0;labelPosition=right;points=[];portConstraint=eastwest;strokeColor=inherit;" vertex="1" parent="4KDGW-qGhdqhRM9TrZcH-28">
          <mxGeometry y="80" width="160" height="8" as="geometry" />
        </mxCell>
        <mxCell id="4KDGW-qGhdqhRM9TrZcH-31" value="mover(velocidad)" style="text;strokeColor=none;fillColor=none;align=left;verticalAlign=top;spacingLeft=4;spacingRight=4;overflow=hidden;rotatable=0;points=[[0,0.5],[1,0.5]];portConstraint=eastwest;whiteSpace=wrap;html=1;" vertex="1" parent="4KDGW-qGhdqhRM9TrZcH-28">
          <mxGeometry y="88" width="160" height="62" as="geometry" />
        </mxCell>
        <mxCell id="4KDGW-qGhdqhRM9TrZcH-32" value="ov_grande" style="swimlane;fontStyle=1;align=center;verticalAlign=top;childLayout=stackLayout;horizontal=1;startSize=26;horizontalStack=0;resizeParent=1;resizeParentMax=0;resizeLast=0;collapsible=1;marginBottom=0;whiteSpace=wrap;html=1;" vertex="1" parent="1">
          <mxGeometry x="400" y="-140" width="160" height="170" as="geometry" />
        </mxCell>
        <mxCell id="4KDGW-qGhdqhRM9TrZcH-33" value="+ field: type" style="text;strokeColor=none;fillColor=none;align=left;verticalAlign=top;spacingLeft=4;spacingRight=4;overflow=hidden;rotatable=0;points=[[0,0.5],[1,0.5]];portConstraint=eastwest;whiteSpace=wrap;html=1;" vertex="1" parent="4KDGW-qGhdqhRM9TrZcH-32">
          <mxGeometry y="26" width="160" height="74" as="geometry" />
        </mxCell>
        <mxCell id="4KDGW-qGhdqhRM9TrZcH-34" value="" style="line;strokeWidth=1;fillColor=none;align=left;verticalAlign=middle;spacingTop=-1;spacingLeft=3;spacingRight=3;rotatable=0;labelPosition=right;points=[];portConstraint=eastwest;strokeColor=inherit;" vertex="1" parent="4KDGW-qGhdqhRM9TrZcH-32">
          <mxGeometry y="100" width="160" height="8" as="geometry" />
        </mxCell>
        <mxCell id="4KDGW-qGhdqhRM9TrZcH-35" value="disparar()" style="text;strokeColor=none;fillColor=none;align=left;verticalAlign=top;spacingLeft=4;spacingRight=4;overflow=hidden;rotatable=0;points=[[0,0.5],[1,0.5]];portConstraint=eastwest;whiteSpace=wrap;html=1;" vertex="1" parent="4KDGW-qGhdqhRM9TrZcH-32">
          <mxGeometry y="108" width="160" height="62" as="geometry" />
        </mxCell>
        <mxCell id="4KDGW-qGhdqhRM9TrZcH-36" value="ov_chico" style="swimlane;fontStyle=1;align=center;verticalAlign=top;childLayout=stackLayout;horizontal=1;startSize=26;horizontalStack=0;resizeParent=1;resizeParentMax=0;resizeLast=0;collapsible=1;marginBottom=0;whiteSpace=wrap;html=1;" vertex="1" parent="1">
          <mxGeometry x="400" y="50.000000000000114" width="160" height="150" as="geometry" />
        </mxCell>
        <mxCell id="4KDGW-qGhdqhRM9TrZcH-37" value="+ field: type" style="text;strokeColor=none;fillColor=none;align=left;verticalAlign=top;spacingLeft=4;spacingRight=4;overflow=hidden;rotatable=0;points=[[0,0.5],[1,0.5]];portConstraint=eastwest;whiteSpace=wrap;html=1;" vertex="1" parent="4KDGW-qGhdqhRM9TrZcH-36">
          <mxGeometry y="26" width="160" height="54" as="geometry" />
        </mxCell>
        <mxCell id="4KDGW-qGhdqhRM9TrZcH-38" value="" style="line;strokeWidth=1;fillColor=none;align=left;verticalAlign=middle;spacingTop=-1;spacingLeft=3;spacingRight=3;rotatable=0;labelPosition=right;points=[];portConstraint=eastwest;strokeColor=inherit;" vertex="1" parent="4KDGW-qGhdqhRM9TrZcH-36">
          <mxGeometry y="80" width="160" height="8" as="geometry" />
        </mxCell>
        <mxCell id="4KDGW-qGhdqhRM9TrZcH-39" value="disparar(posJugador)" style="text;strokeColor=none;fillColor=none;align=left;verticalAlign=top;spacingLeft=4;spacingRight=4;overflow=hidden;rotatable=0;points=[[0,0.5],[1,0.5]];portConstraint=eastwest;whiteSpace=wrap;html=1;" vertex="1" parent="4KDGW-qGhdqhRM9TrZcH-36">
          <mxGeometry y="88" width="160" height="62" as="geometry" />
        </mxCell>
        <mxCell id="4KDGW-qGhdqhRM9TrZcH-40" value="" style="endArrow=open;endFill=1;endSize=12;html=1;rounded=0;exitX=0;exitY=0.25;exitDx=0;exitDy=0;" edge="1" parent="1" source="4KDGW-qGhdqhRM9TrZcH-32">
          <mxGeometry width="160" relative="1" as="geometry">
            <mxPoint x="330" y="-270" as="sourcePoint" />
            <mxPoint x="370" y="-180" as="targetPoint" />
            <Array as="points">
              <mxPoint x="370" y="-97" />
            </Array>
          </mxGeometry>
        </mxCell>
        <mxCell id="4KDGW-qGhdqhRM9TrZcH-41" value="" style="endArrow=open;endFill=1;endSize=12;html=1;rounded=0;exitX=0;exitY=0.25;exitDx=0;exitDy=0;" edge="1" parent="1" source="4KDGW-qGhdqhRM9TrZcH-36">
          <mxGeometry width="160" relative="1" as="geometry">
            <mxPoint x="330" y="-270" as="sourcePoint" />
            <mxPoint x="370" y="-180" as="targetPoint" />
            <Array as="points">
              <mxPoint x="370" y="88" />
            </Array>
          </mxGeometry>
        </mxCell>
        <mxCell id="4KDGW-qGhdqhRM9TrZcH-42" value="Jugador" style="swimlane;fontStyle=1;align=center;verticalAlign=top;childLayout=stackLayout;horizontal=1;startSize=26;horizontalStack=0;resizeParent=1;resizeParentMax=0;resizeLast=0;collapsible=1;marginBottom=0;whiteSpace=wrap;html=1;" vertex="1" parent="1">
          <mxGeometry x="360" y="230" width="160" height="198" as="geometry" />
        </mxCell>
        <mxCell id="4KDGW-qGhdqhRM9TrZcH-43" value="friccion" style="text;strokeColor=none;fillColor=none;align=left;verticalAlign=top;spacingLeft=4;spacingRight=4;overflow=hidden;rotatable=0;points=[[0,0.5],[1,0.5]];portConstraint=eastwest;whiteSpace=wrap;html=1;" vertex="1" parent="4KDGW-qGhdqhRM9TrZcH-42">
          <mxGeometry y="26" width="160" height="64" as="geometry" />
        </mxCell>
        <mxCell id="4KDGW-qGhdqhRM9TrZcH-44" value="" style="line;strokeWidth=1;fillColor=none;align=left;verticalAlign=middle;spacingTop=-1;spacingLeft=3;spacingRight=3;rotatable=0;labelPosition=right;points=[];portConstraint=eastwest;strokeColor=inherit;" vertex="1" parent="4KDGW-qGhdqhRM9TrZcH-42">
          <mxGeometry y="90" width="160" height="8" as="geometry" />
        </mxCell>
        <mxCell id="4KDGW-qGhdqhRM9TrZcH-45" value="&lt;div&gt;disparar()&lt;/div&gt;rotar(int angulo)&lt;div&gt;acelerar(real vel)&lt;/div&gt;" style="text;strokeColor=none;fillColor=none;align=left;verticalAlign=top;spacingLeft=4;spacingRight=4;overflow=hidden;rotatable=0;points=[[0,0.5],[1,0.5]];portConstraint=eastwest;whiteSpace=wrap;html=1;" vertex="1" parent="4KDGW-qGhdqhRM9TrZcH-42">
          <mxGeometry y="98" width="160" height="100" as="geometry" />
        </mxCell>
        <mxCell id="4KDGW-qGhdqhRM9TrZcH-46" value="Proyectil" style="swimlane;fontStyle=1;align=center;verticalAlign=top;childLayout=stackLayout;horizontal=1;startSize=26;horizontalStack=0;resizeParent=1;resizeParentMax=0;resizeLast=0;collapsible=1;marginBottom=0;whiteSpace=wrap;html=1;" vertex="1" parent="1">
          <mxGeometry x="640" y="-330" width="160" height="114" as="geometry" />
        </mxCell>
        <mxCell id="4KDGW-qGhdqhRM9TrZcH-47" value="&lt;div&gt;&amp;nbsp;&lt;/div&gt;" style="text;strokeColor=none;fillColor=none;align=left;verticalAlign=top;spacingLeft=4;spacingRight=4;overflow=hidden;rotatable=0;points=[[0,0.5],[1,0.5]];portConstraint=eastwest;whiteSpace=wrap;html=1;" vertex="1" parent="4KDGW-qGhdqhRM9TrZcH-46">
          <mxGeometry y="26" width="160" height="54" as="geometry" />
        </mxCell>
        <mxCell id="4KDGW-qGhdqhRM9TrZcH-48" value="" style="line;strokeWidth=1;fillColor=none;align=left;verticalAlign=middle;spacingTop=-1;spacingLeft=3;spacingRight=3;rotatable=0;labelPosition=right;points=[];portConstraint=eastwest;strokeColor=inherit;" vertex="1" parent="4KDGW-qGhdqhRM9TrZcH-46">
          <mxGeometry y="80" width="160" height="8" as="geometry" />
        </mxCell>
        <mxCell id="4KDGW-qGhdqhRM9TrZcH-49" value="colision()" style="text;strokeColor=none;fillColor=none;align=left;verticalAlign=top;spacingLeft=4;spacingRight=4;overflow=hidden;rotatable=0;points=[[0,0.5],[1,0.5]];portConstraint=eastwest;whiteSpace=wrap;html=1;" vertex="1" parent="4KDGW-qGhdqhRM9TrZcH-46">
          <mxGeometry y="88" width="160" height="26" as="geometry" />
        </mxCell>
        <mxCell id="4KDGW-qGhdqhRM9TrZcH-51" value="Nave *" style="swimlane;fontStyle=1;align=center;verticalAlign=top;childLayout=stackLayout;horizontal=1;startSize=26;horizontalStack=0;resizeParent=1;resizeParentMax=0;resizeLast=0;collapsible=1;marginBottom=0;whiteSpace=wrap;html=1;" vertex="1" parent="1">
          <mxGeometry x="320" y="-560" width="160" height="178" as="geometry" />
        </mxCell>
        <mxCell id="4KDGW-qGhdqhRM9TrZcH-52" value="&lt;div&gt;&lt;/div&gt;" style="text;strokeColor=none;fillColor=none;align=left;verticalAlign=top;spacingLeft=4;spacingRight=4;overflow=hidden;rotatable=0;points=[[0,0.5],[1,0.5]];portConstraint=eastwest;whiteSpace=wrap;html=1;" vertex="1" parent="4KDGW-qGhdqhRM9TrZcH-51">
          <mxGeometry y="26" width="160" height="64" as="geometry" />
        </mxCell>
        <mxCell id="4KDGW-qGhdqhRM9TrZcH-53" value="" style="line;strokeWidth=1;fillColor=none;align=left;verticalAlign=middle;spacingTop=-1;spacingLeft=3;spacingRight=3;rotatable=0;labelPosition=right;points=[];portConstraint=eastwest;strokeColor=inherit;" vertex="1" parent="4KDGW-qGhdqhRM9TrZcH-51">
          <mxGeometry y="90" width="160" height="8" as="geometry" />
        </mxCell>
        <mxCell id="4KDGW-qGhdqhRM9TrZcH-54" value="disparar() *&lt;div&gt;mover() *&amp;nbsp;&lt;/div&gt;" style="text;strokeColor=none;fillColor=none;align=left;verticalAlign=top;spacingLeft=4;spacingRight=4;overflow=hidden;rotatable=0;points=[[0,0.5],[1,0.5]];portConstraint=eastwest;whiteSpace=wrap;html=1;" vertex="1" parent="4KDGW-qGhdqhRM9TrZcH-51">
          <mxGeometry y="98" width="160" height="80" as="geometry" />
        </mxCell>
        <mxCell id="4KDGW-qGhdqhRM9TrZcH-55" value="" style="endArrow=open;endFill=1;endSize=12;html=1;rounded=0;exitX=0.003;exitY=0.073;exitDx=0;exitDy=0;exitPerimeter=0;" edge="1" parent="1" source="4KDGW-qGhdqhRM9TrZcH-28">
          <mxGeometry width="160" relative="1" as="geometry">
            <mxPoint x="330" y="-110" as="sourcePoint" />
            <mxPoint x="330" y="-380" as="targetPoint" />
            <Array as="points">
              <mxPoint x="330" y="-320" />
            </Array>
          </mxGeometry>
        </mxCell>
        <mxCell id="4KDGW-qGhdqhRM9TrZcH-56" value="" style="endArrow=open;endFill=1;endSize=12;html=1;rounded=0;exitX=-0.022;exitY=0.068;exitDx=0;exitDy=0;entryX=0.063;entryY=1.037;entryDx=0;entryDy=0;entryPerimeter=0;exitPerimeter=0;" edge="1" parent="1" source="4KDGW-qGhdqhRM9TrZcH-42" target="4KDGW-qGhdqhRM9TrZcH-54">
          <mxGeometry width="160" relative="1" as="geometry">
            <mxPoint x="330" y="-110" as="sourcePoint" />
            <mxPoint x="330" y="-350" as="targetPoint" />
            <Array as="points">
              <mxPoint x="330" y="243" />
            </Array>
          </mxGeometry>
        </mxCell>
        <mxCell id="4KDGW-qGhdqhRM9TrZcH-59" value="" style="endArrow=diamondThin;endFill=0;endSize=24;html=1;rounded=0;entryX=0.25;entryY=0;entryDx=0;entryDy=0;exitX=0;exitY=0;exitDx=0;exitDy=0;" edge="1" parent="1" source="4KDGW-qGhdqhRM9TrZcH-60" target="4KDGW-qGhdqhRM9TrZcH-46">
          <mxGeometry width="160" relative="1" as="geometry">
            <mxPoint x="330" y="-260" as="sourcePoint" />
            <mxPoint x="490" y="-260" as="targetPoint" />
            <Array as="points">
              <mxPoint x="680" y="-550" />
              <mxPoint x="680" y="-400" />
            </Array>
          </mxGeometry>
        </mxCell>
        <mxCell id="4KDGW-qGhdqhRM9TrZcH-60" value="1" style="text;html=1;align=center;verticalAlign=middle;whiteSpace=wrap;rounded=0;" vertex="1" parent="1">
          <mxGeometry x="480" y="-550" width="30" height="30" as="geometry" />
        </mxCell>
        <mxCell id="4KDGW-qGhdqhRM9TrZcH-61" value="shooter" style="text;html=1;align=center;verticalAlign=middle;whiteSpace=wrap;rounded=0;" vertex="1" parent="1">
          <mxGeometry x="690" y="-360" width="60" height="30" as="geometry" />
        </mxCell>
        <mxCell id="4KDGW-qGhdqhRM9TrZcH-63" value="ObjetoVolador" style="swimlane;fontStyle=1;align=center;verticalAlign=top;childLayout=stackLayout;horizontal=1;startSize=26;horizontalStack=0;resizeParent=1;resizeParentMax=0;resizeLast=0;collapsible=1;marginBottom=0;whiteSpace=wrap;html=1;" vertex="1" parent="1">
          <mxGeometry x="320" y="-880" width="160" height="150" as="geometry" />
        </mxCell>
        <mxCell id="4KDGW-qGhdqhRM9TrZcH-64" value="posicion&lt;div&gt;velocidad&lt;/div&gt;&lt;div&gt;tamaño&lt;/div&gt;" style="text;strokeColor=none;fillColor=none;align=left;verticalAlign=top;spacingLeft=4;spacingRight=4;overflow=hidden;rotatable=0;points=[[0,0.5],[1,0.5]];portConstraint=eastwest;whiteSpace=wrap;html=1;" vertex="1" parent="4KDGW-qGhdqhRM9TrZcH-63">
          <mxGeometry y="26" width="160" height="54" as="geometry" />
        </mxCell>
        <mxCell id="4KDGW-qGhdqhRM9TrZcH-65" value="" style="line;strokeWidth=1;fillColor=none;align=left;verticalAlign=middle;spacingTop=-1;spacingLeft=3;spacingRight=3;rotatable=0;labelPosition=right;points=[];portConstraint=eastwest;strokeColor=inherit;" vertex="1" parent="4KDGW-qGhdqhRM9TrZcH-63">
          <mxGeometry y="80" width="160" height="8" as="geometry" />
        </mxCell>
        <mxCell id="4KDGW-qGhdqhRM9TrZcH-66" value="checkColision(ObjVolador)" style="text;strokeColor=none;fillColor=none;align=left;verticalAlign=top;spacingLeft=4;spacingRight=4;overflow=hidden;rotatable=0;points=[[0,0.5],[1,0.5]];portConstraint=eastwest;whiteSpace=wrap;html=1;" vertex="1" parent="4KDGW-qGhdqhRM9TrZcH-63">
          <mxGeometry y="88" width="160" height="62" as="geometry" />
        </mxCell>
        <mxCell id="4KDGW-qGhdqhRM9TrZcH-67" value="" style="endArrow=open;endFill=1;endSize=12;html=1;rounded=0;exitX=0.5;exitY=0;exitDx=0;exitDy=0;entryX=0.503;entryY=1.162;entryDx=0;entryDy=0;entryPerimeter=0;" edge="1" parent="1" source="4KDGW-qGhdqhRM9TrZcH-51" target="4KDGW-qGhdqhRM9TrZcH-66">
          <mxGeometry width="160" relative="1" as="geometry">
            <mxPoint x="330" y="-590" as="sourcePoint" />
            <mxPoint x="400" y="-690" as="targetPoint" />
          </mxGeometry>
        </mxCell>
        <mxCell id="4KDGW-qGhdqhRM9TrZcH-68" value="" style="endArrow=open;endFill=1;endSize=12;html=1;rounded=0;exitX=0.5;exitY=0;exitDx=0;exitDy=0;" edge="1" parent="1" source="4KDGW-qGhdqhRM9TrZcH-1">
          <mxGeometry width="160" relative="1" as="geometry">
            <mxPoint x="330" y="-590" as="sourcePoint" />
            <mxPoint x="400" y="-720" as="targetPoint" />
            <Array as="points">
              <mxPoint x="120" y="-650" />
              <mxPoint x="400" y="-650" />
            </Array>
          </mxGeometry>
        </mxCell>
        <mxCell id="4KDGW-qGhdqhRM9TrZcH-69" value="" style="endArrow=open;endFill=1;endSize=12;html=1;rounded=0;exitX=0.75;exitY=0;exitDx=0;exitDy=0;" edge="1" parent="1" source="4KDGW-qGhdqhRM9TrZcH-46">
          <mxGeometry width="160" relative="1" as="geometry">
            <mxPoint x="130" y="-550" as="sourcePoint" />
            <mxPoint x="400" y="-720" as="targetPoint" />
            <Array as="points">
              <mxPoint x="760" y="-650" />
              <mxPoint x="400" y="-650" />
            </Array>
          </mxGeometry>
        </mxCell>
      </root>
    </mxGraphModel>
  </diagram>
</mxfile>
